<svg width="373" height="434" viewBox="0 0 373 434" fill="none" xmlns="http://www.w3.org/2000/svg">
<path fill-rule="evenodd" clip-rule="evenodd" d="M253.656 33.7333C255.518 17.0989 243.725 2.07833 227.091 0.216279C210.457 -1.76991 195.436 10.1472 193.574 26.7816C191.339 45.7746 194.443 68.4917 198.415 91.8294C209.463 95.1811 220.139 100.022 230.07 105.733C240.746 80.533 251.173 55.5814 253.656 33.7333ZM370.469 106.726C363.89 91.3329 346.014 84.3812 330.621 90.9605C310.387 99.7742 289.408 117.029 268.304 134.781C276.249 142.601 283.697 151.415 290.028 160.974C313.987 157.994 336.952 154.394 354.704 146.698C370.097 139.87 377.173 121.995 370.469 106.726ZM319.449 25.5402C306.042 15.6093 287.049 18.3403 277.118 31.7471C261.973 52.1056 251.794 82.5191 240.746 112.188C244.47 114.671 247.946 117.153 251.298 119.76C253.78 121.746 256.387 123.857 258.994 125.967C284.318 106.85 310.635 88.2294 325.78 67.871C335.711 54.4642 332.856 35.4712 319.449 25.5402Z" fill="#54D09E"/>
<path d="M261.849 268.601C252.539 278.656 242.608 287.966 232.056 297.028C217.284 309.814 202.263 322.228 186.995 334.145C170.609 324.09 158.816 319 156.829 321.607C155.091 323.966 161.919 332.655 174.209 343.952C132.995 374.614 89.4229 401.676 42.6233 423.896C35.2992 427.372 27.6027 429.855 20.0303 432.586C18.0441 433.33 15.9338 433.33 15.0648 433.455C3.14767 434.82 -0.452306 431.593 0.0442426 420.668C1.53389 386.655 12.0855 354.752 23.0096 322.973C25.9889 314.283 29.0923 305.593 32.3199 296.904C48.8301 306.959 60.6231 312.173 62.6093 309.566C64.7196 306.711 54.7887 295.29 38.1543 281.014C50.0715 250.228 63.3541 219.939 78.9954 190.891C110.278 214.104 138.085 229.373 141.188 225.153C144.291 220.932 121.326 198.463 89.6712 175.001L88.3057 174.008C93.7677 164.698 99.478 155.388 105.561 146.326C113.133 134.905 122.443 124.477 131.63 114.298C143.919 100.767 159.809 96.1742 177.56 100.147C234.415 112.809 273.891 145.457 292.511 201.442C296.235 212.863 292.884 224.035 287.049 234.339C283.077 241.29 278.732 247.87 273.891 254.077C243.849 232.104 217.781 217.953 214.801 221.925C211.946 225.897 232.677 246.38 261.849 268.601Z" fill="#FD7557"/>
</svg>
